<mxfile host="app.diagrams.net" agent="Mozilla/5.0 (Windows NT 10.0; Win64; x64) AppleWebKit/537.36 (KHTML, like Gecko) Chrome/138.0.0.0 Safari/537.36" version="28.0.7">
  <diagram name="Page-1" id="CkQcahNSz7Ue2rC2ovQF">
    <mxGraphModel dx="2566" dy="1031" grid="1" gridSize="10" guides="1" tooltips="1" connect="1" arrows="1" fold="1" page="1" pageScale="1" pageWidth="850" pageHeight="1100" math="0" shadow="0">
      <root>
        <mxCell id="0" />
        <mxCell id="1" parent="0" />
        <mxCell id="yLGNu4EbiCviq2OJUUVo-1" value="User" style="rounded=1;arcSize=10;whiteSpace=wrap;html=1;align=center;fillColor=#ffe6cc;strokeColor=#d79b00;" parent="1" vertex="1">
          <mxGeometry x="85" y="200" width="100" height="40" as="geometry" />
        </mxCell>
        <mxCell id="yLGNu4EbiCviq2OJUUVo-2" value="Order" style="rounded=1;arcSize=10;whiteSpace=wrap;html=1;align=center;fillColor=#ffe6cc;strokeColor=#d79b00;" parent="1" vertex="1">
          <mxGeometry x="399" y="199" width="100" height="40" as="geometry" />
        </mxCell>
        <mxCell id="yLGNu4EbiCviq2OJUUVo-3" value="Driver" style="rounded=1;arcSize=10;whiteSpace=wrap;html=1;align=center;fillColor=#ffe6cc;strokeColor=#d79b00;" parent="1" vertex="1">
          <mxGeometry x="688" y="200" width="100" height="40" as="geometry" />
        </mxCell>
        <mxCell id="yLGNu4EbiCviq2OJUUVo-6" value="" style="endArrow=none;html=1;rounded=0;entryX=0;entryY=0.5;entryDx=0;entryDy=0;exitX=1;exitY=0.5;exitDx=0;exitDy=0;" parent="1" source="yLGNu4EbiCviq2OJUUVo-1" target="yLGNu4EbiCviq2OJUUVo-2" edge="1">
          <mxGeometry relative="1" as="geometry">
            <mxPoint x="200" y="219" as="sourcePoint" />
            <mxPoint x="370" y="219.5" as="targetPoint" />
          </mxGeometry>
        </mxCell>
        <mxCell id="yLGNu4EbiCviq2OJUUVo-7" value="N" style="resizable=0;html=1;whiteSpace=wrap;align=right;verticalAlign=bottom;" parent="yLGNu4EbiCviq2OJUUVo-6" connectable="0" vertex="1">
          <mxGeometry x="1" relative="1" as="geometry" />
        </mxCell>
        <mxCell id="yLGNu4EbiCviq2OJUUVo-8" value="1" style="text;html=1;align=center;verticalAlign=middle;resizable=0;points=[];autosize=1;strokeColor=none;fillColor=none;" parent="1" vertex="1">
          <mxGeometry x="178" y="196" width="30" height="30" as="geometry" />
        </mxCell>
        <mxCell id="yLGNu4EbiCviq2OJUUVo-9" value="places" style="shape=rhombus;perimeter=rhombusPerimeter;whiteSpace=wrap;html=1;align=center;fillColor=#f8cecc;strokeColor=#b85450;" parent="1" vertex="1">
          <mxGeometry x="230" y="189" width="120" height="60" as="geometry" />
        </mxCell>
        <mxCell id="yLGNu4EbiCviq2OJUUVo-10" value="" style="endArrow=none;html=1;rounded=0;entryX=0;entryY=0.5;entryDx=0;entryDy=0;" parent="1" source="yLGNu4EbiCviq2OJUUVo-14" target="yLGNu4EbiCviq2OJUUVo-3" edge="1">
          <mxGeometry relative="1" as="geometry">
            <mxPoint x="499" y="219.5" as="sourcePoint" />
            <mxPoint x="659" y="219.5" as="targetPoint" />
          </mxGeometry>
        </mxCell>
        <mxCell id="yLGNu4EbiCviq2OJUUVo-11" value="1" style="resizable=0;html=1;whiteSpace=wrap;align=right;verticalAlign=bottom;" parent="yLGNu4EbiCviq2OJUUVo-10" connectable="0" vertex="1">
          <mxGeometry x="1" relative="1" as="geometry" />
        </mxCell>
        <mxCell id="yLGNu4EbiCviq2OJUUVo-12" value="1" style="text;html=1;align=center;verticalAlign=middle;resizable=0;points=[];autosize=1;strokeColor=none;fillColor=none;" parent="1" vertex="1">
          <mxGeometry x="491" y="196" width="30" height="30" as="geometry" />
        </mxCell>
        <mxCell id="yLGNu4EbiCviq2OJUUVo-13" value="" style="endArrow=none;html=1;rounded=0;" parent="1" target="yLGNu4EbiCviq2OJUUVo-14" edge="1">
          <mxGeometry relative="1" as="geometry">
            <mxPoint x="499" y="219.5" as="sourcePoint" />
            <mxPoint x="659" y="219.5" as="targetPoint" />
          </mxGeometry>
        </mxCell>
        <mxCell id="yLGNu4EbiCviq2OJUUVo-14" value="Assigned to" style="shape=rhombus;perimeter=rhombusPerimeter;whiteSpace=wrap;html=1;align=center;fillColor=#f8cecc;strokeColor=#b85450;" parent="1" vertex="1">
          <mxGeometry x="535" y="190" width="120" height="60" as="geometry" />
        </mxCell>
        <mxCell id="yLGNu4EbiCviq2OJUUVo-15" value="user_id" style="ellipse;whiteSpace=wrap;html=1;align=center;fontStyle=4;" parent="1" vertex="1">
          <mxGeometry x="-101" y="200" width="100" height="40" as="geometry" />
        </mxCell>
        <mxCell id="yLGNu4EbiCviq2OJUUVo-16" value="order_id" style="ellipse;whiteSpace=wrap;html=1;align=center;fontStyle=4;" parent="1" vertex="1">
          <mxGeometry x="450" y="31" width="100" height="40" as="geometry" />
        </mxCell>
        <mxCell id="yLGNu4EbiCviq2OJUUVo-20" value="driver_id" style="ellipse;whiteSpace=wrap;html=1;align=center;fontStyle=4;" parent="1" vertex="1">
          <mxGeometry x="870" y="201" width="100" height="40" as="geometry" />
        </mxCell>
        <mxCell id="yLGNu4EbiCviq2OJUUVo-25" value="driver_name" style="ellipse;whiteSpace=wrap;html=1;align=center;" parent="1" vertex="1">
          <mxGeometry x="850" y="115" width="100" height="40" as="geometry" />
        </mxCell>
        <mxCell id="yLGNu4EbiCviq2OJUUVo-26" value="driver_rating" style="ellipse;whiteSpace=wrap;html=1;align=center;" parent="1" vertex="1">
          <mxGeometry x="853" y="278" width="100" height="40" as="geometry" />
        </mxCell>
        <mxCell id="yLGNu4EbiCviq2OJUUVo-27" value="earned_tip" style="ellipse;whiteSpace=wrap;html=1;align=center;" parent="1" vertex="1">
          <mxGeometry x="788" y="340" width="100" height="40" as="geometry" />
        </mxCell>
        <mxCell id="yLGNu4EbiCviq2OJUUVo-28" value="driver_mobile" style="ellipse;whiteSpace=wrap;html=1;align=center;" parent="1" vertex="1">
          <mxGeometry x="788" y="57" width="100" height="40" as="geometry" />
        </mxCell>
        <mxCell id="yLGNu4EbiCviq2OJUUVo-30" value="" style="endArrow=none;dashed=1;html=1;dashPattern=1 3;strokeWidth=2;rounded=0;entryX=0;entryY=0.5;entryDx=0;entryDy=0;exitX=1;exitY=0.5;exitDx=0;exitDy=0;" parent="1" source="yLGNu4EbiCviq2OJUUVo-3" target="yLGNu4EbiCviq2OJUUVo-20" edge="1">
          <mxGeometry width="50" height="50" relative="1" as="geometry">
            <mxPoint x="430" y="250" as="sourcePoint" />
            <mxPoint x="480" y="200" as="targetPoint" />
          </mxGeometry>
        </mxCell>
        <mxCell id="yLGNu4EbiCviq2OJUUVo-31" value="" style="endArrow=none;dashed=1;html=1;dashPattern=1 3;strokeWidth=2;rounded=0;entryX=0;entryY=0.5;entryDx=0;entryDy=0;" parent="1" target="yLGNu4EbiCviq2OJUUVo-25" edge="1">
          <mxGeometry width="50" height="50" relative="1" as="geometry">
            <mxPoint x="790" y="220" as="sourcePoint" />
            <mxPoint x="912" y="211" as="targetPoint" />
          </mxGeometry>
        </mxCell>
        <mxCell id="yLGNu4EbiCviq2OJUUVo-32" value="" style="endArrow=none;dashed=1;html=1;dashPattern=1 3;strokeWidth=2;rounded=0;entryX=0.5;entryY=1;entryDx=0;entryDy=0;" parent="1" target="yLGNu4EbiCviq2OJUUVo-28" edge="1">
          <mxGeometry width="50" height="50" relative="1" as="geometry">
            <mxPoint x="790" y="220" as="sourcePoint" />
            <mxPoint x="880" y="170" as="targetPoint" />
          </mxGeometry>
        </mxCell>
        <mxCell id="yLGNu4EbiCviq2OJUUVo-33" value="" style="endArrow=none;dashed=1;html=1;dashPattern=1 3;strokeWidth=2;rounded=0;entryX=0;entryY=0.5;entryDx=0;entryDy=0;exitX=1;exitY=0.5;exitDx=0;exitDy=0;" parent="1" source="yLGNu4EbiCviq2OJUUVo-3" target="yLGNu4EbiCviq2OJUUVo-26" edge="1">
          <mxGeometry width="50" height="50" relative="1" as="geometry">
            <mxPoint x="810" y="263" as="sourcePoint" />
            <mxPoint x="850" y="290" as="targetPoint" />
          </mxGeometry>
        </mxCell>
        <mxCell id="yLGNu4EbiCviq2OJUUVo-34" value="" style="endArrow=none;dashed=1;html=1;dashPattern=1 3;strokeWidth=2;rounded=0;entryX=0.5;entryY=0;entryDx=0;entryDy=0;exitX=1;exitY=0.5;exitDx=0;exitDy=0;" parent="1" source="yLGNu4EbiCviq2OJUUVo-3" target="yLGNu4EbiCviq2OJUUVo-27" edge="1">
          <mxGeometry width="50" height="50" relative="1" as="geometry">
            <mxPoint x="820" y="260" as="sourcePoint" />
            <mxPoint x="885" y="338" as="targetPoint" />
          </mxGeometry>
        </mxCell>
        <mxCell id="yLGNu4EbiCviq2OJUUVo-36" value="" style="endArrow=none;dashed=1;html=1;dashPattern=1 3;strokeWidth=2;rounded=0;entryX=1;entryY=0.5;entryDx=0;entryDy=0;exitX=0;exitY=0.5;exitDx=0;exitDy=0;" parent="1" source="yLGNu4EbiCviq2OJUUVo-1" target="yLGNu4EbiCviq2OJUUVo-15" edge="1">
          <mxGeometry width="50" height="50" relative="1" as="geometry">
            <mxPoint x="340" y="250" as="sourcePoint" />
            <mxPoint x="390" y="200" as="targetPoint" />
          </mxGeometry>
        </mxCell>
        <mxCell id="yLGNu4EbiCviq2OJUUVo-38" value="user_name" style="ellipse;whiteSpace=wrap;html=1;align=center;" parent="1" vertex="1">
          <mxGeometry x="-81" y="119" width="100" height="40" as="geometry" />
        </mxCell>
        <mxCell id="yLGNu4EbiCviq2OJUUVo-39" value="user_address" style="ellipse;whiteSpace=wrap;html=1;align=center;" parent="1" vertex="1">
          <mxGeometry x="-81" y="288" width="100" height="40" as="geometry" />
        </mxCell>
        <mxCell id="yLGNu4EbiCviq2OJUUVo-40" value="user_alt_mobile" style="ellipse;whiteSpace=wrap;html=1;align=center;" parent="1" vertex="1">
          <mxGeometry x="-40" y="354" width="100" height="40" as="geometry" />
        </mxCell>
        <mxCell id="yLGNu4EbiCviq2OJUUVo-41" value="user_mobile" style="ellipse;whiteSpace=wrap;html=1;align=center;" parent="1" vertex="1">
          <mxGeometry x="-40" y="55" width="100" height="40" as="geometry" />
        </mxCell>
        <mxCell id="yLGNu4EbiCviq2OJUUVo-42" value="" style="endArrow=none;dashed=1;html=1;dashPattern=1 3;strokeWidth=2;rounded=0;entryX=1;entryY=0.5;entryDx=0;entryDy=0;exitX=0;exitY=0.5;exitDx=0;exitDy=0;" parent="1" source="yLGNu4EbiCviq2OJUUVo-1" target="yLGNu4EbiCviq2OJUUVo-38" edge="1">
          <mxGeometry width="50" height="50" relative="1" as="geometry">
            <mxPoint x="126" y="210" as="sourcePoint" />
            <mxPoint x="40" y="210" as="targetPoint" />
          </mxGeometry>
        </mxCell>
        <mxCell id="yLGNu4EbiCviq2OJUUVo-43" value="" style="endArrow=none;dashed=1;html=1;dashPattern=1 3;strokeWidth=2;rounded=0;entryX=0.77;entryY=0.954;entryDx=0;entryDy=0;exitX=0;exitY=0.5;exitDx=0;exitDy=0;entryPerimeter=0;" parent="1" source="yLGNu4EbiCviq2OJUUVo-1" target="yLGNu4EbiCviq2OJUUVo-41" edge="1">
          <mxGeometry width="50" height="50" relative="1" as="geometry">
            <mxPoint x="106" y="231" as="sourcePoint" />
            <mxPoint x="40" y="150" as="targetPoint" />
          </mxGeometry>
        </mxCell>
        <mxCell id="yLGNu4EbiCviq2OJUUVo-44" value="" style="endArrow=none;dashed=1;html=1;dashPattern=1 3;strokeWidth=2;rounded=0;entryX=0.5;entryY=0;entryDx=0;entryDy=0;exitX=0;exitY=0.5;exitDx=0;exitDy=0;" parent="1" source="yLGNu4EbiCviq2OJUUVo-1" target="yLGNu4EbiCviq2OJUUVo-39" edge="1">
          <mxGeometry width="50" height="50" relative="1" as="geometry">
            <mxPoint x="108" y="267" as="sourcePoint" />
            <mxPoint x="60" y="140" as="targetPoint" />
          </mxGeometry>
        </mxCell>
        <mxCell id="yLGNu4EbiCviq2OJUUVo-45" value="" style="endArrow=none;dashed=1;html=1;dashPattern=1 3;strokeWidth=2;rounded=0;exitX=0;exitY=0.5;exitDx=0;exitDy=0;entryX=0.722;entryY=0.002;entryDx=0;entryDy=0;entryPerimeter=0;" parent="1" source="yLGNu4EbiCviq2OJUUVo-1" target="yLGNu4EbiCviq2OJUUVo-40" edge="1">
          <mxGeometry width="50" height="50" relative="1" as="geometry">
            <mxPoint x="116" y="260" as="sourcePoint" />
            <mxPoint y="328" as="targetPoint" />
          </mxGeometry>
        </mxCell>
        <mxCell id="yLGNu4EbiCviq2OJUUVo-46" value="order_description" style="ellipse;whiteSpace=wrap;html=1;align=center;" parent="1" vertex="1">
          <mxGeometry x="500" y="97" width="100" height="40" as="geometry" />
        </mxCell>
        <mxCell id="yLGNu4EbiCviq2OJUUVo-47" value="order_price" style="ellipse;whiteSpace=wrap;html=1;align=center;" parent="1" vertex="1">
          <mxGeometry x="277" y="97" width="100" height="40" as="geometry" />
        </mxCell>
        <mxCell id="yLGNu4EbiCviq2OJUUVo-48" value="order_name" style="ellipse;whiteSpace=wrap;html=1;align=center;" parent="1" vertex="1">
          <mxGeometry x="310" y="32" width="100" height="40" as="geometry" />
        </mxCell>
        <mxCell id="yLGNu4EbiCviq2OJUUVo-49" value="" style="endArrow=none;dashed=1;html=1;dashPattern=1 3;strokeWidth=2;rounded=0;entryX=0;entryY=1;entryDx=0;entryDy=0;exitX=0.5;exitY=0;exitDx=0;exitDy=0;" parent="1" source="yLGNu4EbiCviq2OJUUVo-2" target="yLGNu4EbiCviq2OJUUVo-16" edge="1">
          <mxGeometry width="50" height="50" relative="1" as="geometry">
            <mxPoint x="370" y="250" as="sourcePoint" />
            <mxPoint x="420" y="200" as="targetPoint" />
          </mxGeometry>
        </mxCell>
        <mxCell id="yLGNu4EbiCviq2OJUUVo-50" value="" style="endArrow=none;dashed=1;html=1;dashPattern=1 3;strokeWidth=2;rounded=0;entryX=1;entryY=1;entryDx=0;entryDy=0;exitX=0.5;exitY=0;exitDx=0;exitDy=0;" parent="1" source="yLGNu4EbiCviq2OJUUVo-2" target="yLGNu4EbiCviq2OJUUVo-48" edge="1">
          <mxGeometry width="50" height="50" relative="1" as="geometry">
            <mxPoint x="440" y="324" as="sourcePoint" />
            <mxPoint x="456" y="190" as="targetPoint" />
          </mxGeometry>
        </mxCell>
        <mxCell id="yLGNu4EbiCviq2OJUUVo-51" value="" style="endArrow=none;dashed=1;html=1;dashPattern=1 3;strokeWidth=2;rounded=0;entryX=0.5;entryY=1;entryDx=0;entryDy=0;" parent="1" target="yLGNu4EbiCviq2OJUUVo-47" edge="1">
          <mxGeometry width="50" height="50" relative="1" as="geometry">
            <mxPoint x="449" y="200" as="sourcePoint" />
            <mxPoint x="420" y="140" as="targetPoint" />
          </mxGeometry>
        </mxCell>
        <mxCell id="yLGNu4EbiCviq2OJUUVo-52" value="" style="endArrow=none;dashed=1;html=1;dashPattern=1 3;strokeWidth=2;rounded=0;entryX=0.5;entryY=1;entryDx=0;entryDy=0;exitX=0.5;exitY=0;exitDx=0;exitDy=0;" parent="1" source="yLGNu4EbiCviq2OJUUVo-2" target="yLGNu4EbiCviq2OJUUVo-46" edge="1">
          <mxGeometry width="50" height="50" relative="1" as="geometry">
            <mxPoint x="562" y="253" as="sourcePoint" />
            <mxPoint x="440" y="190" as="targetPoint" />
          </mxGeometry>
        </mxCell>
        <mxCell id="yLGNu4EbiCviq2OJUUVo-53" value="" style="rounded=1;whiteSpace=wrap;html=1;fillColor=#ffe6cc;strokeColor=#d79b00;" parent="1" vertex="1">
          <mxGeometry x="389" y="400" width="120" height="60" as="geometry" />
        </mxCell>
        <mxCell id="yLGNu4EbiCviq2OJUUVo-54" value="Status" style="rounded=1;whiteSpace=wrap;html=1;" parent="1" vertex="1">
          <mxGeometry x="399.5" y="409.5" width="99" height="41" as="geometry" />
        </mxCell>
        <mxCell id="yLGNu4EbiCviq2OJUUVo-55" value="order_id" style="ellipse;whiteSpace=wrap;html=1;align=center;" parent="1" vertex="1">
          <mxGeometry x="289" y="510" width="100" height="40" as="geometry" />
        </mxCell>
        <mxCell id="yLGNu4EbiCviq2OJUUVo-56" value="user_id" style="ellipse;whiteSpace=wrap;html=1;align=center;" parent="1" vertex="1">
          <mxGeometry x="510" y="510" width="100" height="40" as="geometry" />
        </mxCell>
        <mxCell id="yLGNu4EbiCviq2OJUUVo-57" value="driver_id" style="ellipse;whiteSpace=wrap;html=1;align=center;" parent="1" vertex="1">
          <mxGeometry x="480" y="580" width="100" height="40" as="geometry" />
        </mxCell>
        <mxCell id="yLGNu4EbiCviq2OJUUVo-58" value="order_status" style="ellipse;whiteSpace=wrap;html=1;align=center;" parent="1" vertex="1">
          <mxGeometry x="314" y="580" width="100" height="40" as="geometry" />
        </mxCell>
        <mxCell id="yLGNu4EbiCviq2OJUUVo-59" value="" style="endArrow=none;dashed=1;html=1;dashPattern=1 3;strokeWidth=2;rounded=0;entryX=0.5;entryY=1;entryDx=0;entryDy=0;exitX=1;exitY=0;exitDx=0;exitDy=0;" parent="1" source="yLGNu4EbiCviq2OJUUVo-58" target="yLGNu4EbiCviq2OJUUVo-53" edge="1">
          <mxGeometry width="50" height="50" relative="1" as="geometry">
            <mxPoint x="490" y="232" as="sourcePoint" />
            <mxPoint x="591" y="170" as="targetPoint" />
          </mxGeometry>
        </mxCell>
        <mxCell id="yLGNu4EbiCviq2OJUUVo-60" value="" style="endArrow=none;dashed=1;html=1;dashPattern=1 3;strokeWidth=2;rounded=0;exitX=1;exitY=0;exitDx=0;exitDy=0;entryX=0.5;entryY=1;entryDx=0;entryDy=0;" parent="1" source="yLGNu4EbiCviq2OJUUVo-55" target="yLGNu4EbiCviq2OJUUVo-53" edge="1">
          <mxGeometry width="50" height="50" relative="1" as="geometry">
            <mxPoint x="450" y="696" as="sourcePoint" />
            <mxPoint x="450" y="470" as="targetPoint" />
          </mxGeometry>
        </mxCell>
        <mxCell id="yLGNu4EbiCviq2OJUUVo-61" value="" style="endArrow=none;dashed=1;html=1;dashPattern=1 3;strokeWidth=2;rounded=0;exitX=0;exitY=0;exitDx=0;exitDy=0;entryX=0.5;entryY=1;entryDx=0;entryDy=0;" parent="1" source="yLGNu4EbiCviq2OJUUVo-56" target="yLGNu4EbiCviq2OJUUVo-53" edge="1">
          <mxGeometry width="50" height="50" relative="1" as="geometry">
            <mxPoint x="410" y="536" as="sourcePoint" />
            <mxPoint x="485" y="480" as="targetPoint" />
          </mxGeometry>
        </mxCell>
        <mxCell id="yLGNu4EbiCviq2OJUUVo-62" value="" style="endArrow=none;dashed=1;html=1;dashPattern=1 3;strokeWidth=2;rounded=0;exitX=0;exitY=0;exitDx=0;exitDy=0;entryX=0.5;entryY=1;entryDx=0;entryDy=0;" parent="1" source="yLGNu4EbiCviq2OJUUVo-57" target="yLGNu4EbiCviq2OJUUVo-53" edge="1">
          <mxGeometry width="50" height="50" relative="1" as="geometry">
            <mxPoint x="556" y="536" as="sourcePoint" />
            <mxPoint x="480" y="480" as="targetPoint" />
          </mxGeometry>
        </mxCell>
        <mxCell id="yLGNu4EbiCviq2OJUUVo-68" value="" style="endArrow=none;html=1;rounded=0;entryX=0.5;entryY=1;entryDx=0;entryDy=0;exitX=1;exitY=0.5;exitDx=0;exitDy=0;" parent="1" source="yLGNu4EbiCviq2OJUUVo-53" target="yLGNu4EbiCviq2OJUUVo-3" edge="1">
          <mxGeometry width="50" height="50" relative="1" as="geometry">
            <mxPoint x="350" y="440" as="sourcePoint" />
            <mxPoint x="400" y="390" as="targetPoint" />
            <Array as="points">
              <mxPoint x="738" y="430" />
            </Array>
          </mxGeometry>
        </mxCell>
        <mxCell id="yLGNu4EbiCviq2OJUUVo-71" value="" style="rhombus;whiteSpace=wrap;html=1;fillColor=#f8cecc;strokeColor=#b85450;" parent="1" vertex="1">
          <mxGeometry x="549" y="389" width="139" height="81" as="geometry" />
        </mxCell>
        <mxCell id="yLGNu4EbiCviq2OJUUVo-72" value="" style="endArrow=none;html=1;rounded=0;entryX=0.5;entryY=1;entryDx=0;entryDy=0;exitX=0;exitY=0.5;exitDx=0;exitDy=0;" parent="1" source="yLGNu4EbiCviq2OJUUVo-53" target="yLGNu4EbiCviq2OJUUVo-1" edge="1">
          <mxGeometry width="50" height="50" relative="1" as="geometry">
            <mxPoint x="350" y="440" as="sourcePoint" />
            <mxPoint x="400" y="390" as="targetPoint" />
            <Array as="points">
              <mxPoint x="135" y="430" />
            </Array>
          </mxGeometry>
        </mxCell>
        <mxCell id="yLGNu4EbiCviq2OJUUVo-73" value="" style="rhombus;whiteSpace=wrap;html=1;fillColor=#f8cecc;strokeColor=#b85450;" parent="1" vertex="1">
          <mxGeometry x="185" y="385" width="141" height="85" as="geometry" />
        </mxCell>
        <mxCell id="yLGNu4EbiCviq2OJUUVo-74" value="Views&lt;div&gt;orders&#39;&lt;/div&gt;" style="rhombus;whiteSpace=wrap;html=1;" parent="1" vertex="1">
          <mxGeometry x="195.5" y="396.5" width="120" height="62" as="geometry" />
        </mxCell>
        <mxCell id="yLGNu4EbiCviq2OJUUVo-75" value="Update&lt;div&gt;Orders&#39;&lt;/div&gt;" style="rhombus;whiteSpace=wrap;html=1;" parent="1" vertex="1">
          <mxGeometry x="557.5" y="398" width="120" height="62" as="geometry" />
        </mxCell>
        <mxCell id="yLGNu4EbiCviq2OJUUVo-76" value="N" style="text;html=1;align=center;verticalAlign=middle;whiteSpace=wrap;rounded=0;" parent="1" vertex="1">
          <mxGeometry x="344" y="404" width="60" height="30" as="geometry" />
        </mxCell>
        <mxCell id="yLGNu4EbiCviq2OJUUVo-77" value="N" style="text;html=1;align=center;verticalAlign=middle;whiteSpace=wrap;rounded=0;" parent="1" vertex="1">
          <mxGeometry x="494.5" y="404" width="60" height="30" as="geometry" />
        </mxCell>
        <mxCell id="yLGNu4EbiCviq2OJUUVo-78" value="1" style="text;html=1;align=center;verticalAlign=middle;whiteSpace=wrap;rounded=0;" parent="1" vertex="1">
          <mxGeometry x="117" y="238" width="60" height="30" as="geometry" />
        </mxCell>
        <mxCell id="yLGNu4EbiCviq2OJUUVo-79" value="1" style="text;html=1;align=center;verticalAlign=middle;whiteSpace=wrap;rounded=0;" parent="1" vertex="1">
          <mxGeometry x="697" y="239" width="60" height="30" as="geometry" />
        </mxCell>
      </root>
    </mxGraphModel>
  </diagram>
</mxfile>
